<?xml version="1.0" encoding="utf-8"?>
<!-- Generator: Adobe Illustrator 22.0.1, SVG Export Plug-In . SVG Version: 6.00 Build 0)  -->
<svg version="1.1" id="Слой_1" xmlns="http://www.w3.org/2000/svg" xmlns:xlink="http://www.w3.org/1999/xlink" x="0px" y="0px"
	 viewBox="0 0 24 24" style="enable-background:new 0 0 24 24;" xml:space="preserve">
<path d="M12.2,22.8c-0.9,0-1.9-0.1-2.8-0.4c-2.8-0.7-5.1-2.5-6.6-5.1S1,12,1.7,9.2s2.5-5.1,5.1-6.6c2.1-1.2,4.4-1.6,6.8-1.4
	c0.3,0,0.5,0.3,0.6,0.5c0.1,0.3-0.1,0.6-0.4,0.7c-3.3,2.1-4.4,6.4-2.4,9.8l0,0c2,3.4,6.2,4.7,9.8,2.8c0.3-0.2,0.6-0.1,0.8,0.1
	c0.2,0.2,0.3,0.5,0.2,0.8c-0.9,2.2-2.5,4-4.6,5.2C15.9,22.4,14.1,22.8,12.2,22.8z M11.4,2.6c-1.4,0.1-2.8,0.5-4,1.3
	C5.3,5.1,3.7,7.1,3,9.6s-0.3,5,0.9,7.1c1.2,2.2,3.3,3.7,5.7,4.3c2.4,0.6,5,0.3,7.1-0.9c1.3-0.7,2.3-1.7,3.1-2.8
	c-3.7,1-7.8-0.6-9.8-4.2l0,0C8.1,9.7,8.7,5.4,11.4,2.6z"/>
</svg>
